<?xml version="1.0" encoding="utf-8"?>
<!-- Generator: Adobe Illustrator 16.0.0, SVG Export Plug-In . SVG Version: 6.00 Build 0)  -->
<!DOCTYPE svg PUBLIC "-//W3C//DTD SVG 1.1//EN" "http://www.w3.org/Graphics/SVG/1.1/DTD/svg11.dtd">
<svg version="1.1" xmlns="http://www.w3.org/2000/svg" xmlns:xlink="http://www.w3.org/1999/xlink" x="0px" y="0px" width="70px"
	 height="100px" viewBox="0 0 70 100" enable-background="new 0 0 70 100" xml:space="preserve">
<g id="conformidade">
	<ellipse fill="#C7C8C9" cx="34.53" cy="49.926" rx="25.272" ry="24.813"/>
</g>
<g id="caixa">
	<path fill="#0271B1" d="M24.757,46.789l0.219-2.953c0,0-1.406-1.234-3.422,0c0,0-2.137,1.578-2.256,5.078
		c0,0-0.182,2.359,1.287,3.969c0,0,1.531,1.516,3.641,0l0.281-2.918c0,0-0.609,0.84-1.438,0.84s-1.396-0.917-1.396-2.383
		s1.229-2.466,1.812-2.466S24.486,45.998,24.757,46.789z"/>
	<polygon fill="#0271B1" points="24.976,53.394 28.424,43.477 31.069,43.477 32.548,53.394 30.215,53.394 30.049,52.102 
		27.819,52.102 27.257,53.394 	"/>
	<polygon fill="#C7C7C8" points="28.549,49.623 29.466,46.727 29.778,49.623 	"/>
	<polygon fill="#0271B1" points="34.667,43.477 37.042,43.477 35.916,53.394 33.646,53.394 	"/>
	<polygon fill="#0271B1" points="44.82,53.394 48.268,43.477 50.913,43.477 52.393,53.394 50.059,53.394 49.893,52.102 
		47.663,52.102 47.101,53.394 	"/>
	<polygon fill="#C7C7C8" points="48.393,49.623 49.31,46.727 49.622,49.623 	"/>
	<polygon fill="#0271B1" points="37.938,43.477 40.812,43.477 42.688,48 39.844,48 	"/>
	<polygon fill="#0271B1" points="42.516,48.734 44.547,53.312 41.578,53.312 40.844,51.688 	"/>
	<polygon fill="#F58227" points="39.453,48.734 42.516,48.734 39.891,53.394 36.828,53.394 	"/>
	<polygon fill="#F58227" points="41.516,45.172 42.516,43.406 45.594,43.406 42.938,48 42.688,48 	"/>
</g>
</svg>
