<?xml version="1.0" encoding="utf-8"?>
<!-- Generator: Adobe Illustrator 16.0.0, SVG Export Plug-In . SVG Version: 6.00 Build 0)  -->
<!DOCTYPE svg PUBLIC "-//W3C//DTD SVG 1.1//EN" "http://www.w3.org/Graphics/SVG/1.1/DTD/svg11.dtd">
<svg version="1.1" xmlns="http://www.w3.org/2000/svg" xmlns:xlink="http://www.w3.org/1999/xlink" x="0px" y="0px" width="70px"
	 height="100px" viewBox="0 0 70 100" enable-background="new 0 0 70 100" xml:space="preserve">
<g id="cartorio1">
	<ellipse fill="#C7C8C9" cx="34.53" cy="49.926" rx="25.272" ry="24.813"/>
</g>
<g id="cartorio">
	<g>
		<rect x="25.269" y="31.172" fill="#F28021" width="22.157" height="33.665"/>
		<g>
			<path fill="#F38124" d="M25.269,31.692c4.66,0,9.32,0,13.98,0c2.443,0,4.886,0,7.329,0c1.185,0,0.328-0.036,0.328-0.369
				c0,0.691,0,1.382,0,2.074c0,10.467,0,20.934,0,31.402c0-0.703,0.629-0.481-0.777-0.481c-1.108,0-2.217,0-3.326,0
				c-3.431,0-6.862,0-10.293,0c-2.251,0-4.502,0-6.753,0c-0.842,0,0.033,0.779,0.033,0.184c0-0.812,0-1.626,0-2.439
				c0-10.297,0-20.593,0-30.89c0-0.67-1.04-0.67-1.04,0c0,11.222,0,22.443,0,33.665c0,0.283,0.236,0.52,0.52,0.52
				c7.386,0,14.771,0,22.157,0c0.283,0,0.52-0.236,0.52-0.52c0-11.222,0-22.443,0-33.665c0-0.284-0.236-0.52-0.52-0.52
				c-7.386,0-14.771,0-22.157,0C24.598,30.652,24.598,31.692,25.269,31.692z"/>
		</g>
	</g>
	<path fill="#F38124" d="M14.069,61.621h7.645c0,0-0.143-3.04-3.788-3.04C14.281,58.581,14.069,61.621,14.069,61.621z"/>
	
		<line fill="none" stroke="#F38124" stroke-width="0.3984" stroke-linecap="round" stroke-miterlimit="10" x1="14.414" y1="62.247" x2="21.428" y2="62.247"/>
	<rect x="17.047" y="57.656" fill="#FFFFFF" width="1.747" height="1.087"/>
	<path fill="#FFFFFF" d="M28.69,61.426c1.643-3.273,3.946-6.038,3.946-6.038s-0.557-1.894-0.094-2.433
		c0.028-0.031,0.058-0.058,0.094-0.08l0.625,0.312l-0.573-1.351c0,0,0.793-0.491,1.055-0.491c0.265,0,1.453,1.556,0.748,2.309
		l-0.967,0.13l1.188,0.31c0,0-1.229,1.298-1.582,1.376c-0.352,0.076-3.91,6.119-3.91,6.119S28.251,62.295,28.69,61.426z"/>
	<path fill="none" stroke="#F38124" stroke-width="0.0832" stroke-miterlimit="10" d="M27.339,62.895
		c0.212-0.66,0.811-1.287,0.951-1.987c-0.006,0.026-0.002,0.05-0.025,0.07c0.004,0.4-0.191,0.817-0.159,1.23
		c-0.018,0.004-0.029-0.001-0.034-0.012c-0.033-0.354,0.136-0.776,0.253-1.076c-0.101,0.358-0.077,0.726-0.071,1.092
		c0.045-0.112,0.067-0.21,0.066-0.336c-0.068,0.11-0.128,0.268-0.162,0.406c0.002-0.122,0.042-0.136,0.086-0.233
		c0.034,0.031,0.121,0.066,0.162,0.104c0.17-0.188,0.298-0.071,0.367,0.138c0.095-0.049,0.203-0.133,0.242-0.195
		c-0.086-0.021-0.063,0.026-0.128,0.058c0.01,0,0.065-0.055,0.071-0.062c-0.004,0.058-0.001,0.147,0.028,0.199
		c0.205-0.004,0.365-0.109,0.581-0.081c-0.052,0.037-0.092,0.079-0.144,0.115c0.083,0.002,0.107,0,0.181,0.02
		c0.564-0.14,1.085,0.017,1.659-0.248c0.552-0.258,1.12,0.127,1.724-0.012"/>
	
		<line fill="none" stroke="#FFFFFF" stroke-linecap="round" stroke-miterlimit="10" x1="28.576" y1="36.511" x2="40.963" y2="36.511"/>
	
		<line fill="none" stroke="#FFFFFF" stroke-linecap="round" stroke-miterlimit="10" x1="28.576" y1="38.784" x2="40.963" y2="38.784"/>
	
		<line fill="none" stroke="#FFFFFF" stroke-linecap="round" stroke-miterlimit="10" x1="28.576" y1="41.682" x2="40.963" y2="41.682"/>
	
		<line fill="none" stroke="#FFFFFF" stroke-linecap="round" stroke-miterlimit="10" x1="36.348" y1="46.342" x2="44.412" y2="46.342"/>
	
		<line fill="none" stroke="#FFFFFF" stroke-linecap="round" stroke-miterlimit="10" x1="28.576" y1="49.07" x2="40.963" y2="49.07"/>
	<polygon fill="#FFFFFF" points="40.817,63.413 39.919,67.922 41.576,66.418 43.028,67.922 42.544,63.413 	"/>
	<ellipse fill="#FFFFFF" cx="41.619" cy="63.056" rx="1.555" ry="1.782"/>
</g>
</svg>
