<?xml version="1.0" encoding="utf-8"?>
<!-- Generator: Adobe Illustrator 16.0.0, SVG Export Plug-In . SVG Version: 6.00 Build 0)  -->
<!DOCTYPE svg PUBLIC "-//W3C//DTD SVG 1.1//EN" "http://www.w3.org/Graphics/SVG/1.1/DTD/svg11.dtd">
<svg version="1.1" xmlns="http://www.w3.org/2000/svg" xmlns:xlink="http://www.w3.org/1999/xlink" x="0px" y="0px" width="70px"
	 height="100px" viewBox="0 0 70 100" enable-background="new 0 0 70 100" xml:space="preserve">
<g id="cartorio1">
	<ellipse fill="#C7C8C9" cx="34.53" cy="49.926" rx="25.272" ry="24.813"/>
</g>
<g id="cartorio">
	<g>
		<g>
			<path fill="#F38124" d="M29.704,38.104c2.886,0,5.772,0,8.658,0c1.391,0,2.781,0,4.172,0c0.891,0,0.012-0.33,0.012-0.355
				c0,0.403,0,0.807,0,1.21c0,6.373,0,12.747,0,19.12c0-0.58,0.871-0.478-0.012-0.478c-0.675,0-1.35,0-2.024,0
				c-2.034,0-4.068,0-6.103,0c-1.487,0-2.974,0-4.46,0c-0.389,0,0.277,0.871,0.277,0.155c0-0.489,0-0.979,0-1.47
				c0-6.234,0-12.468,0-18.703c0-0.67-1.04-0.67-1.04,0c0,6.846,0,13.691,0,20.537c0,0.283,0.236,0.52,0.52,0.52
				c4.454,0,8.907,0,13.361,0c0.283,0,0.52-0.236,0.52-0.52c0-6.846,0-13.691,0-20.537c0-0.284-0.236-0.52-0.52-0.52
				c-4.454,0-8.908,0-13.361,0C29.034,37.063,29.034,38.104,29.704,38.104z"/>
		</g>
	</g>
	<path fill="#F38124" d="M22.95,56.158h4.61c0,0-0.086-1.854-2.284-1.854S22.95,56.158,22.95,56.158z"/>
	
		<line fill="none" stroke="#F38124" stroke-width="0.3984" stroke-linecap="round" stroke-miterlimit="10" x1="23.158" y1="56.54" x2="27.388" y2="56.54"/>
	<rect x="24.746" y="53.739" fill="#F38124" width="1.053" height="0.663"/>
	<path fill="#F38124" d="M31.732,56.086c0.486-1.641,1.167-3.026,1.167-3.026s-0.165-0.948-0.028-1.219
		c0.008-0.016,0.017-0.029,0.028-0.04l0.185,0.156l-0.169-0.677c0,0,0.234-0.247,0.312-0.247c0.078,0,0.429,0.78,0.221,1.157
		l-0.286,0.065l0.351,0.155c0,0-0.364,0.65-0.468,0.689s-1.157,3.067-1.157,3.067S31.603,56.522,31.732,56.086z"/>
	<path fill="none" stroke="#F38124" stroke-width="0.0832" stroke-miterlimit="10" d="M30.952,56.936
		c0.128-0.403,0.489-0.786,0.573-1.213c-0.003,0.017-0.001,0.03-0.015,0.043c0.002,0.244-0.116,0.499-0.095,0.751
		c-0.011,0.002-0.018-0.001-0.021-0.008c-0.02-0.215,0.082-0.474,0.152-0.656c-0.061,0.219-0.046,0.442-0.042,0.666
		c0.027-0.068,0.041-0.128,0.04-0.205c-0.042,0.067-0.077,0.163-0.098,0.248c0.001-0.074,0.025-0.083,0.052-0.143
		c0.021,0.02,0.073,0.04,0.098,0.063c0.103-0.114,0.18-0.043,0.221,0.085c0.057-0.03,0.123-0.081,0.146-0.12
		c-0.052-0.013-0.038,0.017-0.077,0.035c0.006,0,0.04-0.033,0.042-0.037c-0.002,0.035,0,0.09,0.017,0.122
		c0.124-0.003,0.22-0.067,0.351-0.05c-0.031,0.022-0.055,0.048-0.086,0.069c0.05,0.002,0.065,0,0.109,0.013
		c0.34-0.085,0.654,0.011,1-0.151c0.333-0.157,0.675,0.077,1.04-0.007"/>
	
		<line fill="none" stroke="#F38124" stroke-width="0.0832" stroke-miterlimit="10" x1="31.699" y1="40.841" x2="39.168" y2="40.841"/>
	
		<line fill="none" stroke="#F38124" stroke-width="0.0832" stroke-miterlimit="10" x1="31.699" y1="42.227" x2="39.168" y2="42.227"/>
	
		<line fill="none" stroke="#F38124" stroke-width="0.0832" stroke-miterlimit="10" x1="31.699" y1="43.995" x2="39.168" y2="43.995"/>
	
		<line fill="none" stroke="#F38124" stroke-width="0.0832" stroke-miterlimit="10" x1="36.385" y1="46.838" x2="41.248" y2="46.838"/>
	
		<line fill="none" stroke="#F38124" stroke-width="0.0832" stroke-miterlimit="10" x1="31.699" y1="48.502" x2="39.168" y2="48.502"/>
	<polygon fill="#F38124" points="39.168,57.252 38.626,60.002 39.626,59.085 40.501,60.002 40.209,57.252 	"/>
	<ellipse fill="#F38124" cx="39.563" cy="57.033" rx="0.938" ry="1.087"/>
</g>
</svg>
