<?xml version="1.0" encoding="utf-8"?>
<!-- Generator: Adobe Illustrator 16.0.0, SVG Export Plug-In . SVG Version: 6.00 Build 0)  -->
<!DOCTYPE svg PUBLIC "-//W3C//DTD SVG 1.1//EN" "http://www.w3.org/Graphics/SVG/1.1/DTD/svg11.dtd">
<svg version="1.1" xmlns="http://www.w3.org/2000/svg" xmlns:xlink="http://www.w3.org/1999/xlink" x="0px" y="0px" width="70px"
	 height="100px" viewBox="0 0 70 100" enable-background="new 0 0 70 100" xml:space="preserve">
<g id="conformidade">
	<ellipse fill="#C7C8C9" cx="34.53" cy="49.926" rx="25.272" ry="24.813"/>
</g>
<g id="caixa">
	<path fill="#0271B1" d="M19.865,46.678l0.29-4.299c0,0-1.86-1.797-4.527,0c0,0-2.827,2.297-2.984,7.392c0,0-0.24,3.435,1.703,5.776
		c0,0,2.026,2.207,4.816,0l0.372-4.247c0,0-0.806,1.223-1.902,1.223c-1.095,0-1.847-1.333-1.847-3.468
		c0-2.134,1.626-3.59,2.397-3.59C18.956,45.464,19.507,45.525,19.865,46.678z"/>
	<polygon fill="#0271B1" points="20.155,56.291 24.716,41.856 28.216,41.856 30.173,56.291 27.086,56.291 26.866,54.411 
		23.916,54.411 23.172,56.291 	"/>
	<polygon fill="#C7C7C8" points="24.881,50.802 26.094,46.586 26.508,50.802 	"/>
	<polygon fill="#0271B1" points="32.975,41.856 36.117,41.856 34.627,56.291 31.625,56.291 	"/>
	<polygon fill="#0271B1" points="46.408,56.291 50.969,41.856 54.469,41.856 56.426,56.291 53.338,56.291 53.117,54.411 
		50.168,54.411 49.424,56.291 	"/>
	<polygon fill="#C7C7C8" points="51.133,50.802 52.348,46.586 52.76,50.802 	"/>
	<polygon fill="#0271B1" points="37.303,41.856 41.105,41.856 43.586,48.44 39.824,48.44 	"/>
	<polygon fill="#0271B1" points="43.357,49.509 46.045,56.173 42.119,56.173 41.146,53.808 	"/>
	<polygon fill="#F58227" points="39.307,49.509 43.357,49.509 39.887,56.291 35.834,56.291 	"/>
	<polygon fill="#F58227" points="42.035,44.324 43.357,41.753 47.432,41.753 43.918,48.44 43.586,48.44 	"/>
</g>
</svg>
