<?xml version="1.0" encoding="utf-8"?>
<!-- Generator: Adobe Illustrator 16.0.0, SVG Export Plug-In . SVG Version: 6.00 Build 0)  -->
<!DOCTYPE svg PUBLIC "-//W3C//DTD SVG 1.1//EN" "http://www.w3.org/Graphics/SVG/1.1/DTD/svg11.dtd">
<svg version="1.1" xmlns="http://www.w3.org/2000/svg" xmlns:xlink="http://www.w3.org/1999/xlink" x="0px" y="0px" width="70px"
	 height="100px" viewBox="0 0 70 100" enable-background="new 0 0 70 100" xml:space="preserve">
<g id="circulo">
	<ellipse fill="#4E6DB4" cx="35.53" cy="46.926" rx="25.272" ry="24.813"/>
</g>
<g id="contrato">
	<g>
		<g>
			<path fill="#F68B2B" d="M26.825,33.698c0,8.862,0,17.724,0,26.585c0,0.271,0.228,0.5,0.5,0.5c5.854,0,11.707,0,17.56,0
				c0.273,0,0.5-0.229,0.5-0.5c0.02-8.088,0.037-16.175,0.055-24.263c0.002-0.272-0.227-0.5-0.5-0.5c-0.738,0-1.477,0-2.215,0
				c0.166,0.167,0.332,0.333,0.5,0.5c0-0.774,0-1.548,0-2.323c0-0.272-0.229-0.5-0.5-0.5c-5.133,0-10.267,0-15.4,0
				c-0.645,0-0.645,1,0,1c5.133,0,10.267,0,15.4,0c-0.168-0.167-0.334-0.333-0.5-0.5c0,0.774,0,1.548,0,2.323
				c0,0.272,0.227,0.5,0.5,0.5c0.738,0,1.477,0,2.215,0c-0.166-0.167-0.332-0.333-0.5-0.5c-0.018,8.087-0.035,16.175-0.055,24.263
				c0.168-0.168,0.334-0.334,0.5-0.5c-5.854,0-11.707,0-17.56,0c0.167,0.166,0.333,0.332,0.5,0.5c0-8.861,0-17.724,0-26.585
				C27.825,33.053,26.825,33.053,26.825,33.698z"/>
		</g>
	</g>
	<polygon fill="#F68B2B" points="43.451,33.566 43.451,35.287 45.068,35.287 	"/>
	<g>
		<g>
			<path fill="#F68B29" d="M29.026,46.473c3.134,0,6.268,0,9.402,0c0.645,0,0.645-1,0-1c-3.134,0-6.268,0-9.402,0
				C28.381,45.473,28.381,46.473,29.026,46.473L29.026,46.473z"/>
		</g>
	</g>
	<path fill="none" stroke="#F99D42" stroke-width="0.1621" stroke-miterlimit="10" d="M35.712,58.566c0,0,2.473-0.85,3.649-0.445
		s2.836,0.498,3.809,0.168"/>
	<path fill="#416CB4" stroke="#F68C23" stroke-width="0.0811" stroke-miterlimit="10" d="M41.148,57.4c0,0-0.213,1.197,0.492,0.229
		L41.148,57.4z"/>
	
		<rect x="41.842" y="54.275" transform="matrix(-0.9054 -0.4245 0.4245 -0.9054 56.5474 124.4462)" fill="#416CB4" stroke="#F68C23" stroke-width="0.078" stroke-miterlimit="10" width="0.589" height="3.297"/>
	<g>
		<g>
			<path fill="#F68B29" d="M34.026,44.168c3.134,0,6.269,0,9.402,0c0.645,0,0.645-1,0-1c-3.133,0-6.268,0-9.402,0
				C33.381,43.168,33.381,44.168,34.026,44.168L34.026,44.168z"/>
		</g>
	</g>
	<g>
		<g>
			<path fill="#F68B29" d="M29.026,40.98c3.134,0,6.269,0,9.402,0c0.645,0,0.645-1,0-1c-3.133,0-6.268,0-9.402,0
				C28.381,39.98,28.381,40.98,29.026,40.98L29.026,40.98z"/>
		</g>
	</g>
	<g>
		<g>
			<path fill="#F68B29" d="M29.026,38.918c3.134,0,6.269,0,9.402,0c0.645,0,0.645-1,0-1c-3.133,0-6.268,0-9.402,0
				C28.381,37.918,28.381,38.918,29.026,38.918L29.026,38.918z"/>
		</g>
	</g>
	<g>
		<g>
			<path fill="#F68B29" d="M29.026,36.48c3.134,0,6.269,0,9.402,0c0.645,0,0.645-1,0-1c-3.133,0-6.268,0-9.402,0
				C28.381,35.48,28.381,36.48,29.026,36.48L29.026,36.48z"/>
		</g>
	</g>
</g>
</svg>
