<?xml version="1.0" encoding="utf-8"?>
<!-- Generator: Adobe Illustrator 16.0.0, SVG Export Plug-In . SVG Version: 6.00 Build 0)  -->
<!DOCTYPE svg PUBLIC "-//W3C//DTD SVG 1.1//EN" "http://www.w3.org/Graphics/SVG/1.1/DTD/svg11.dtd">
<svg version="1.1" xmlns="http://www.w3.org/2000/svg" xmlns:xlink="http://www.w3.org/1999/xlink" x="0px" y="0px" width="70px"
	 height="100px" viewBox="0 0 70 100" enable-background="new 0 0 70 100" xml:space="preserve">
<g id="circulo">
	<ellipse fill="#4E6DB4" cx="34.53" cy="49.926" rx="25.272" ry="24.813"/>
</g>
<g id="pasta">
	<path fill="#FAA427" d="M25.076,57.881V43.395c0,0,0-1.123,1.124-1.123c1.123,0,12.89,0,12.89,0l0.65-1.36
		c0,0,0.177-0.473,1.3-0.473c1.124,0,3.056,0,3.056,0s0.512-0.099,0.512,0.532s0,4.73,0,4.73l-12.672-0.014
		c0,0-0.725,0.028-0.977,0.575C30.708,46.811,25.076,57.881,25.076,57.881z"/>
	<path fill="#FAA427" d="M25.701,58.459h17.34l4.75-10.947c0,0,0.416-1.252-1.515-1.252c-1.93,0-13.81,0-13.81,0
		s-0.586-0.029-0.974,0.698C31.077,47.739,25.701,58.459,25.701,58.459z"/>
</g>
</svg>
