<?xml version="1.0" encoding="utf-8"?>
<!-- Generator: Adobe Illustrator 16.0.0, SVG Export Plug-In . SVG Version: 6.00 Build 0)  -->
<!DOCTYPE svg PUBLIC "-//W3C//DTD SVG 1.1//EN" "http://www.w3.org/Graphics/SVG/1.1/DTD/svg11.dtd">
<svg version="1.1" xmlns="http://www.w3.org/2000/svg" xmlns:xlink="http://www.w3.org/1999/xlink" x="0px" y="0px" width="70px"
	 height="100px" viewBox="0 0 70 100" enable-background="new 0 0 70 100" xml:space="preserve">
<g id="docpessoal">
	<ellipse fill="#4E6DB4" cx="34.53" cy="49.926" rx="25.272" ry="24.813"/>
</g>
<g id="documento">
	<g>
		<g>
			<path fill="#F68B2B" d="M23.214,34.319c0,11.097,0,22.194,0,33.291c0,0.272,0.228,0.5,0.5,0.5c7.829,0,15.658,0,23.487,0
				c0.273,0,0.499-0.228,0.5-0.5c0.026-11.07-0.137-22.156,0.145-33.223c0.007-0.277-0.232-0.494-0.5-0.5
				c-7.874-0.175-15.756-0.067-23.631-0.067c-0.645,0-0.645,1,0,1c7.875,0,15.757-0.107,23.631,0.067
				c-0.167-0.167-0.333-0.333-0.5-0.5c-0.281,11.067-0.118,22.153-0.145,33.223c0.167-0.167,0.333-0.333,0.5-0.5
				c-7.829,0-15.658,0-23.487,0c0.167,0.167,0.333,0.333,0.5,0.5c0-11.097,0-22.194,0-33.291
				C24.214,33.674,23.214,33.674,23.214,34.319z"/>
		</g>
	</g>
	<g>
		<g>
			<path fill="#F68B29" d="M25.696,57.642c6.541,0,13.082,0,19.622,0c0.645,0,0.645-1,0-1c-6.54,0-13.081,0-19.622,0
				C25.051,56.642,25.051,57.642,25.696,57.642L25.696,57.642z"/>
		</g>
	</g>
	<g>
		<g>
			<path fill="#F68B29" d="M25.768,53.781c6.392,0,12.784,0,19.176,0c0.645,0,0.645-1,0-1c-6.392,0-12.784,0-19.176,0
				C25.123,52.781,25.123,53.781,25.768,53.781L25.768,53.781z"/>
		</g>
	</g>
	<g>
		<g>
			<path fill="#F68B29" d="M25.99,47.521c4.191,0,8.383,0,12.575,0c0.645,0,0.645-1,0-1c-4.191,0-8.383,0-12.575,0
				C25.345,46.521,25.345,47.521,25.99,47.521L25.99,47.521z"/>
		</g>
	</g>
	<g>
		<g>
			<path fill="#F68B29" d="M25.989,42.616c4.191,0,8.383,0,12.575,0c0.645,0,0.645-1,0-1c-4.191,0-8.383,0-12.575,0
				C25.344,41.616,25.344,42.616,25.989,42.616L25.989,42.616z"/>
		</g>
	</g>
	<g>
		<g>
			<path fill="#F68B29" d="M25.99,37.677c4.191,0,8.383,0,12.575,0c0.645,0,0.645-1,0-1c-4.191,0-8.383,0-12.575,0
				C25.345,36.677,25.345,37.677,25.99,37.677L25.99,37.677z"/>
		</g>
	</g>
</g>
</svg>
