<?xml version="1.0" encoding="utf-8"?>
<!-- Generator: Adobe Illustrator 16.0.0, SVG Export Plug-In . SVG Version: 6.00 Build 0)  -->
<!DOCTYPE svg PUBLIC "-//W3C//DTD SVG 1.1//EN" "http://www.w3.org/Graphics/SVG/1.1/DTD/svg11.dtd">
<svg version="1.1" xmlns="http://www.w3.org/2000/svg" xmlns:xlink="http://www.w3.org/1999/xlink" x="0px" y="0px" width="70px"
	 height="100px" viewBox="0 0 70 100" enable-background="new 0 0 70 100" xml:space="preserve">
<g id="Layer_1">
	<ellipse fill="#4E6DB4" cx="34.53" cy="49.926" rx="25.272" ry="24.813"/>
</g>
<g id="pasta">
	<path fill="#FAA427" d="M20.923,62.57V40.852c0,0,0-1.684,1.537-1.684c1.537,0,17.635,0,17.635,0l0.891-2.04
		c0,0,0.241-0.708,1.777-0.708c1.538,0,4.181,0,4.181,0s0.7-0.148,0.7,0.797c0,0.945,0,7.093,0,7.093l-17.336-0.021
		c0,0-0.991,0.042-1.336,0.862C28.627,45.973,20.923,62.57,20.923,62.57z"/>
	<path fill="#FAA427" d="M21.778,63.438H45.5l6.499-16.413c0,0,0.569-1.877-2.072-1.877c-2.641,0-18.893,0-18.893,0
		s-0.802-0.044-1.333,1.047C29.133,47.366,21.778,63.438,21.778,63.438z"/>
</g>
</svg>
