<?xml version="1.0" encoding="utf-8"?>
<!-- Generator: Adobe Illustrator 16.0.0, SVG Export Plug-In . SVG Version: 6.00 Build 0)  -->
<!DOCTYPE svg PUBLIC "-//W3C//DTD SVG 1.1//EN" "http://www.w3.org/Graphics/SVG/1.1/DTD/svg11.dtd">
<svg version="1.1" xmlns="http://www.w3.org/2000/svg" xmlns:xlink="http://www.w3.org/1999/xlink" x="0px" y="0px" width="70px"
	 height="100px" viewBox="0 0 70 100" enable-background="new 0 0 70 100" xml:space="preserve">
<g id="engenharia">
	<ellipse fill="#4E6DB4" cx="34.53" cy="49.926" rx="25.272" ry="24.813"/>
</g>
<g id="calculos">
	<rect x="22.583" y="41" fill="#F9AA29" width="23.893" height="17.851"/>
	
		<rect x="38.312" y="47.75" fill="none" stroke="#FFFFFF" stroke-width="0.25" stroke-miterlimit="10" width="5.938" height="8.875"/>
	
		<rect x="39.188" y="42.312" fill="none" stroke="#FDFDFE" stroke-width="0.25" stroke-miterlimit="10" width="1.062" height="2.188"/>
	
		<rect x="40.25" y="43.042" fill="none" stroke="#FDFDFE" stroke-width="0.25" stroke-miterlimit="10" width="2.042" height="0.542"/>
	
		<line fill="none" stroke="#FFFFFF" stroke-width="0.2667" stroke-linecap="round" stroke-miterlimit="10" x1="39" y1="50.281" x2="43.781" y2="50.281"/>
	
		<line fill="none" stroke="#FFFFFF" stroke-width="0.2462" stroke-linecap="round" stroke-miterlimit="10" x1="39.146" y1="48.688" x2="41.354" y2="48.688"/>
	
		<line fill="none" stroke="#FFFFFF" stroke-width="0.2462" stroke-linecap="round" stroke-miterlimit="10" x1="39.146" y1="49.344" x2="41.354" y2="49.344"/>
	
		<line fill="none" stroke="#FFFFFF" stroke-width="0.2667" stroke-linecap="round" stroke-miterlimit="10" x1="38.964" y1="51.156" x2="43.745" y2="51.156"/>
	
		<line fill="none" stroke="#FFFFFF" stroke-width="0.2667" stroke-linecap="round" stroke-miterlimit="10" x1="38.964" y1="51.969" x2="43.745" y2="51.969"/>
	
		<line fill="none" stroke="#FFFFFF" stroke-width="0.2667" stroke-linecap="round" stroke-miterlimit="10" x1="39" y1="54.938" x2="43.781" y2="54.938"/>
	
		<line fill="none" stroke="#FFFFFF" stroke-width="0.2667" stroke-linecap="round" stroke-miterlimit="10" x1="38.964" y1="52.844" x2="43.745" y2="52.844"/>
	
		<line fill="none" stroke="#FFFFFF" stroke-width="0.2667" stroke-linecap="round" stroke-miterlimit="10" x1="39" y1="53.781" x2="43.781" y2="53.781"/>
	
		<rect x="28.219" y="49.344" fill="none" stroke="#FFFFFF" stroke-width="0.1" stroke-miterlimit="10" width="1.031" height="7.281"/>
	<line fill="none" stroke="#FFFFFF" stroke-width="0.1" stroke-miterlimit="10" x1="28.219" y1="50.375" x2="28.734" y2="50.375"/>
	<line fill="none" stroke="#FFFFFF" stroke-width="0.1" stroke-miterlimit="10" x1="28.219" y1="50.766" x2="28.922" y2="50.766"/>
	<line fill="none" stroke="#FFFFFF" stroke-width="0.1" stroke-miterlimit="10" x1="28.219" y1="51.219" x2="28.656" y2="51.219"/>
	<line fill="none" stroke="#FFFFFF" stroke-width="0.1" stroke-miterlimit="10" x1="28.219" y1="51.781" x2="29.016" y2="51.781"/>
	<line fill="none" stroke="#FFFFFF" stroke-width="0.1" stroke-miterlimit="10" x1="28.219" y1="52.188" x2="28.656" y2="52.188"/>
	<line fill="none" stroke="#FFFFFF" stroke-width="0.1" stroke-miterlimit="10" x1="28.219" y1="52.562" x2="28.922" y2="52.562"/>
	<line fill="none" stroke="#FFFFFF" stroke-width="0.1" stroke-miterlimit="10" x1="28.219" y1="53.062" x2="28.617" y2="53.062"/>
	<line fill="none" stroke="#FFFFFF" stroke-width="0.1" stroke-miterlimit="10" x1="28.219" y1="53.453" x2="28.922" y2="53.453"/>
	<line fill="none" stroke="#FFFFFF" stroke-width="0.1" stroke-miterlimit="10" x1="28.219" y1="53.984" x2="28.617" y2="53.984"/>
	<line fill="none" stroke="#FFFFFF" stroke-width="0.1" stroke-miterlimit="10" x1="28.219" y1="54.516" x2="28.922" y2="54.516"/>
	<line fill="none" stroke="#FFFFFF" stroke-width="0.1" stroke-miterlimit="10" x1="28.219" y1="54.938" x2="28.617" y2="54.938"/>
	<line fill="none" stroke="#FFFFFF" stroke-width="0.1" stroke-miterlimit="10" x1="28.219" y1="55.516" x2="28.922" y2="55.516"/>
	<line fill="none" stroke="#FFFFFF" stroke-width="0.1" stroke-miterlimit="10" x1="28.219" y1="56.031" x2="28.617" y2="56.031"/>
	
		<rect x="24.562" y="50.766" fill="none" stroke="#FFFFFF" stroke-width="0.1" stroke-miterlimit="10" width="1.297" height="5.859"/>
	<polygon fill="none" stroke="#FFFFFF" stroke-width="0.0913" stroke-miterlimit="10" points="24.619,50.766 25.211,49.782 
		25.803,50.766 	"/>
	<line fill="none" stroke="#FFFFFF" stroke-width="0.1" stroke-miterlimit="10" x1="24.562" y1="55.922" x2="25.859" y2="55.922"/>
	
		<rect x="25.211" y="39.708" fill="#F9AA29" stroke="#FFFFFF" stroke-width="0.25" stroke-miterlimit="10" width="4.415" height="2.125"/>
	<line fill="none" stroke="#FFFFFF" stroke-width="0.25" stroke-miterlimit="10" x1="24.792" y1="43.583" x2="30.167" y2="43.583"/>
	<line fill="none" stroke="#FFFFFF" stroke-width="0.25" stroke-miterlimit="10" x1="24.792" y1="44.792" x2="30.167" y2="44.792"/>
</g>
</svg>
