<?xml version="1.0" encoding="utf-8"?>
<!-- Generator: Adobe Illustrator 16.0.0, SVG Export Plug-In . SVG Version: 6.00 Build 0)  -->
<!DOCTYPE svg PUBLIC "-//W3C//DTD SVG 1.1//EN" "http://www.w3.org/Graphics/SVG/1.1/DTD/svg11.dtd">
<svg version="1.1" xmlns="http://www.w3.org/2000/svg" xmlns:xlink="http://www.w3.org/1999/xlink" x="0px" y="0px" width="70px"
	 height="100px" viewBox="0 0 70 100" enable-background="new 0 0 70 100" xml:space="preserve">
<g id="engenharia">
	<ellipse fill="#4E6DB4" cx="34.53" cy="49.926" rx="25.272" ry="24.813"/>
</g>
<g id="calculos">
	<rect x="17.271" y="34.872" fill="#F9AA29" width="35.268" height="26.009"/>
	<rect x="40.488" y="44.707" fill="none" stroke="#FFFFFF" stroke-miterlimit="10" width="8.764" height="12.932"/>
	
		<rect x="41.78" y="36.784" fill="none" stroke="#FDFDFE" stroke-width="0.25" stroke-miterlimit="10" width="1.568" height="3.188"/>
	
		<rect x="43.349" y="37.846" fill="none" stroke="#FDFDFE" stroke-width="0.25" stroke-miterlimit="10" width="3.015" height="0.79"/>
	
		<line fill="none" stroke="#FFFFFF" stroke-width="0.5" stroke-linecap="round" stroke-miterlimit="10" x1="41.503" y1="48.396" x2="48.561" y2="48.396"/>
	
		<line fill="none" stroke="#FFFFFF" stroke-width="0.5" stroke-linecap="round" stroke-miterlimit="10" x1="41.718" y1="46.073" x2="44.979" y2="46.073"/>
	
		<line fill="none" stroke="#FFFFFF" stroke-width="0.5" stroke-linecap="round" stroke-miterlimit="10" x1="41.718" y1="47.029" x2="44.979" y2="47.029"/>
	
		<line fill="none" stroke="#FFFFFF" stroke-width="0.5" stroke-linecap="round" stroke-miterlimit="10" x1="41.45" y1="49.67" x2="48.507" y2="49.67"/>
	
		<line fill="none" stroke="#FFFFFF" stroke-width="0.5" stroke-linecap="round" stroke-miterlimit="10" x1="41.45" y1="50.854" x2="48.507" y2="50.854"/>
	
		<line fill="none" stroke="#FFFFFF" stroke-width="0.5" stroke-linecap="round" stroke-miterlimit="10" x1="41.503" y1="55.181" x2="48.561" y2="55.181"/>
	
		<line fill="none" stroke="#FFFFFF" stroke-width="0.5" stroke-linecap="round" stroke-miterlimit="10" x1="41.45" y1="52.129" x2="48.507" y2="52.129"/>
	
		<line fill="none" stroke="#FFFFFF" stroke-width="0.5" stroke-linecap="round" stroke-miterlimit="10" x1="41.503" y1="53.495" x2="48.561" y2="53.495"/>
	
		<rect x="25.589" y="47.029" fill="none" stroke="#FFFFFF" stroke-width="0.5" stroke-miterlimit="10" width="1.522" height="10.61"/>
	<line fill="none" stroke="#FFFFFF" stroke-width="0.1" stroke-miterlimit="10" x1="25.589" y1="48.531" x2="26.35" y2="48.531"/>
	<line fill="none" stroke="#FFFFFF" stroke-width="0.1" stroke-miterlimit="10" x1="25.589" y1="49.102" x2="26.627" y2="49.102"/>
	<line fill="none" stroke="#FFFFFF" stroke-width="0.1" stroke-miterlimit="10" x1="25.589" y1="49.761" x2="26.235" y2="49.761"/>
	<line fill="none" stroke="#FFFFFF" stroke-width="0.1" stroke-miterlimit="10" x1="25.589" y1="50.581" x2="26.766" y2="50.581"/>
	<line fill="none" stroke="#FFFFFF" stroke-width="0.1" stroke-miterlimit="10" x1="25.589" y1="51.172" x2="26.235" y2="51.172"/>
	<line fill="none" stroke="#FFFFFF" stroke-width="0.1" stroke-miterlimit="10" x1="25.589" y1="51.719" x2="26.627" y2="51.719"/>
	<line fill="none" stroke="#FFFFFF" stroke-width="0.1" stroke-miterlimit="10" x1="25.589" y1="52.447" x2="26.177" y2="52.447"/>
	<line fill="none" stroke="#FFFFFF" stroke-width="0.1" stroke-miterlimit="10" x1="25.589" y1="53.017" x2="26.627" y2="53.017"/>
	<line fill="none" stroke="#FFFFFF" stroke-width="0.1" stroke-miterlimit="10" x1="25.589" y1="53.791" x2="26.177" y2="53.791"/>
	<line fill="none" stroke="#FFFFFF" stroke-width="0.1" stroke-miterlimit="10" x1="25.589" y1="54.565" x2="26.627" y2="54.565"/>
	<line fill="none" stroke="#FFFFFF" stroke-width="0.1" stroke-miterlimit="10" x1="25.589" y1="55.181" x2="26.177" y2="55.181"/>
	<line fill="none" stroke="#FFFFFF" stroke-width="0.1" stroke-miterlimit="10" x1="25.589" y1="56.021" x2="26.627" y2="56.021"/>
	<line fill="none" stroke="#FFFFFF" stroke-width="0.1" stroke-miterlimit="10" x1="25.589" y1="56.773" x2="26.177" y2="56.773"/>
	
		<rect x="20.192" y="49.102" fill="none" stroke="#FFFFFF" stroke-width="0.5" stroke-miterlimit="10" width="1.915" height="8.537"/>
	<polygon fill="none" stroke="#FFFFFF" stroke-width="0.5" stroke-miterlimit="10" points="20.276,49.102 21.149,47.667 
		22.023,49.102 	"/>
	<line fill="none" stroke="#FFFFFF" stroke-width="0.1" stroke-miterlimit="10" x1="20.192" y1="56.614" x2="22.106" y2="56.614"/>
	
		<rect x="21.149" y="32.989" fill="#F9AA29" stroke="#FFFFFF" stroke-width="0.5" stroke-miterlimit="10" width="6.516" height="3.096"/>
	<line fill="none" stroke="#FFFFFF" stroke-miterlimit="10" x1="20.531" y1="38.636" x2="28.465" y2="38.636"/>
	<line fill="none" stroke="#FFFFFF" stroke-miterlimit="10" x1="20.531" y1="40.396" x2="28.465" y2="40.396"/>
</g>
</svg>
