<?xml version="1.0" encoding="utf-8"?>
<!-- Generator: Adobe Illustrator 16.0.0, SVG Export Plug-In . SVG Version: 6.00 Build 0)  -->
<!DOCTYPE svg PUBLIC "-//W3C//DTD SVG 1.1//EN" "http://www.w3.org/Graphics/SVG/1.1/DTD/svg11.dtd">
<svg version="1.1" xmlns="http://www.w3.org/2000/svg" xmlns:xlink="http://www.w3.org/1999/xlink" x="0px" y="0px" width="70px"
	 height="100px" viewBox="0 0 70 100" enable-background="new 0 0 70 100" xml:space="preserve">
<g id="circulo">
	<ellipse fill="#4E6DB4" cx="35.53" cy="46.926" rx="25.272" ry="24.813"/>
</g>
<g id="contrato">
	<g>
		<polygon fill="#F68B23" points="23.881,30.943 23.881,63.066 48.363,63.066 48.44,33.75 45.352,33.75 45.352,30.943 		"/>
		<g>
			<path fill="#F68B2B" d="M23.381,30.943c0,10.708,0,21.415,0,32.123c0,0.272,0.228,0.5,0.5,0.5c8.161,0,16.322,0,24.482,0
				c0.273,0,0.499-0.228,0.5-0.5c0.025-9.772,0.052-19.544,0.077-29.316c0.001-0.272-0.228-0.5-0.5-0.5c-1.029,0-2.06,0-3.089,0
				c0.167,0.167,0.333,0.333,0.5,0.5c0-0.936,0-1.871,0-2.807c0-0.272-0.228-0.5-0.5-0.5c-7.156,0-14.313,0-21.47,0
				c-0.645,0-0.645,1,0,1c7.157,0,14.314,0,21.47,0c-0.167-0.167-0.333-0.333-0.5-0.5c0,0.936,0,1.871,0,2.807
				c0,0.272,0.228,0.5,0.5,0.5c1.029,0,2.06,0,3.089,0c-0.167-0.167-0.333-0.333-0.5-0.5c-0.025,9.772-0.052,19.544-0.077,29.316
				c0.167-0.167,0.333-0.333,0.5-0.5c-8.16,0-16.321,0-24.482,0c0.167,0.167,0.333,0.333,0.5,0.5c0-10.708,0-21.416,0-32.123
				C24.381,30.298,23.381,30.298,23.381,30.943z"/>
		</g>
	</g>
	<polygon fill="#F68B2B" points="46.365,30.785 46.365,32.863 48.62,32.863 	"/>
	<g>
		<line fill="#F68B29" x1="26.253" y1="45.775" x2="39.361" y2="45.775"/>
		<g>
			<path fill="#FFFFFF" d="M26.253,46.275c4.37,0,8.739,0,13.108,0c0.645,0,0.645-1,0-1c-4.37,0-8.739,0-13.108,0
				C25.608,45.275,25.608,46.275,26.253,46.275L26.253,46.275z"/>
		</g>
	</g>
	<g>
		<line fill="#FFFFFF" x1="33.225" y1="42.99" x2="46.332" y2="42.99"/>
		<g>
			<path fill="#FFFFFF" d="M33.225,43.49c4.369,0,8.738,0,13.107,0c0.645,0,0.645-1,0-1c-4.369,0-8.738,0-13.107,0
				C32.58,42.49,32.58,43.49,33.225,43.49L33.225,43.49z"/>
		</g>
	</g>
	<g>
		<line fill="#FFFFFF" x1="26.253" y1="39.139" x2="39.361" y2="39.139"/>
		<g>
			<path fill="#FFFFFF" d="M26.253,39.639c4.37,0,8.739,0,13.108,0c0.645,0,0.645-1,0-1c-4.37,0-8.739,0-13.108,0
				C25.608,38.639,25.608,39.639,26.253,39.639L26.253,39.639z"/>
		</g>
	</g>
	<g>
		<line fill="#FFFFFF" x1="26.253" y1="36.646" x2="39.361" y2="36.646"/>
		<g>
			<path fill="#FFFFFF" d="M26.253,37.146c4.37,0,8.739,0,13.108,0c0.645,0,0.645-1,0-1c-4.37,0-8.739,0-13.108,0
				C25.608,36.146,25.608,37.146,26.253,37.146L26.253,37.146z"/>
		</g>
	</g>
	<g>
		<line fill="#FFFFFF" x1="26.253" y1="33.701" x2="39.361" y2="33.701"/>
		<g>
			<path fill="#FFFFFF" d="M26.253,34.201c4.37,0,8.739,0,13.108,0c0.645,0,0.645-1,0-1c-4.37,0-8.739,0-13.108,0
				C25.608,33.201,25.608,34.201,26.253,34.201L26.253,34.201z"/>
		</g>
	</g>
	
		<rect x="27.75" y="52" fill="#F68B23" stroke="#F68C23" stroke-width="0.5" stroke-linecap="round" stroke-linejoin="round" stroke-miterlimit="10" width="16.625" height="7.125"/>
	<text transform="matrix(1.4739 0 0 1 32.8066 57.543)" fill="#FFFFFF" font-family="'MyriadPro-Regular'" font-size="5.3302">ID</text>
</g>
</svg>
