<?xml version="1.0" encoding="utf-8"?>
<!-- Generator: Adobe Illustrator 16.0.0, SVG Export Plug-In . SVG Version: 6.00 Build 0)  -->
<!DOCTYPE svg PUBLIC "-//W3C//DTD SVG 1.1//EN" "http://www.w3.org/Graphics/SVG/1.1/DTD/svg11.dtd">
<svg version="1.1" xmlns="http://www.w3.org/2000/svg" xmlns:xlink="http://www.w3.org/1999/xlink" x="0px" y="0px" width="70px"
	 height="100px" viewBox="0 0 70 100" enable-background="new 0 0 70 100" xml:space="preserve">
<g id="obra">
	<ellipse fill="#C7C8C9" cx="34.53" cy="49.926" rx="25.272" ry="24.813"/>
</g>
<g id="Layer_3">
	<path fill="#F18021" d="M23.356,64.4h21.056c0,0,5.641,0.584,6.894-3.54c1.254-4.123-1.44-10.826-9.775-11.111
		c0,0-4.701,3.321-7.145,3.321c-2.444,0-7.332-3.321-7.332-3.321s-8.648,1.315-9.4,6.759C16.902,61.949,18.281,64.4,23.356,64.4z"/>
	<path fill="#F18021" d="M14.555,47.054"/>
	<path fill="none" stroke="#F18021" stroke-linecap="round" stroke-miterlimit="10" d="M26.427,42.016c0,0,0.876,8.305,7.958,8.305
		c7.083,0,7.834-8.305,7.834-8.305"/>
	<path fill="#F18021" d="M25.173,40.699h18.298c0,0,1.004,0.058,1.004-0.973s-1.441-1.089-1.441-1.089s-1.127-6.128-4.826-6.128
		c0,0-0.262-1.512-3.702-1.512c-3.441,0-4.005,1.455-4.005,1.455s-4.512,1.032-4.7,6.244c0,0-1.692,0-1.692,1.031
		S25.173,40.699,25.173,40.699z"/>
</g>
</svg>
