<?xml version="1.0" encoding="utf-8"?>
<!-- Generator: Adobe Illustrator 16.0.0, SVG Export Plug-In . SVG Version: 6.00 Build 0)  -->
<!DOCTYPE svg PUBLIC "-//W3C//DTD SVG 1.1//EN" "http://www.w3.org/Graphics/SVG/1.1/DTD/svg11.dtd">
<svg version="1.1" xmlns="http://www.w3.org/2000/svg" xmlns:xlink="http://www.w3.org/1999/xlink" x="0px" y="0px" width="70px"
	 height="100px" viewBox="0 0 70 100" enable-background="new 0 0 70 100" xml:space="preserve">
<g id="obra">
	<ellipse fill="#C7C8C9" cx="34.53" cy="49.926" rx="25.272" ry="24.813"/>
</g>
<g id="Layer_3">
	<path fill="#F18021" d="M27.167,60.952h14c0,0,3.749,0.425,4.583-2.575s-0.958-7.875-6.5-8.083c0,0-3.125,2.416-4.75,2.416
		s-4.875-2.416-4.875-2.416s-5.75,0.957-6.25,4.916S23.792,60.952,27.167,60.952z"/>
	<path fill="#F18021" d="M20.583,47.21"/>
	<path fill="none" stroke="#F18021" stroke-linecap="round" stroke-miterlimit="10" d="M29.208,44.668c0,0,0.583,6.042,5.292,6.042
		s5.209-6.042,5.209-6.042"/>
	<path fill="#F18021" d="M28.375,43.71h12.167c0,0,0.667,0.042,0.667-0.708S40.25,42.21,40.25,42.21s-0.75-4.458-3.208-4.458
		c0,0-0.174-1.1-2.462-1.1s-2.663,1.058-2.663,1.058s-3,0.75-3.125,4.542c0,0-1.125,0-1.125,0.75S28.375,43.71,28.375,43.71z"/>
</g>
</svg>
