<?xml version="1.0" encoding="utf-8"?>
<!-- Generator: Adobe Illustrator 16.0.0, SVG Export Plug-In . SVG Version: 6.00 Build 0)  -->
<!DOCTYPE svg PUBLIC "-//W3C//DTD SVG 1.1//EN" "http://www.w3.org/Graphics/SVG/1.1/DTD/svg11.dtd">
<svg version="1.1" xmlns="http://www.w3.org/2000/svg" xmlns:xlink="http://www.w3.org/1999/xlink" x="0px" y="0px" width="70px"
	 height="100px" viewBox="0 0 70 100" enable-background="new 0 0 70 100" xml:space="preserve">
<g id="prefeitura">
	<ellipse fill="#C7C8C9" cx="34.53" cy="49.926" rx="25.272" ry="24.813"/>
</g>
<g id="Layer_3">
	<path fill="#F28122" d="M26.713,53.983l-2.126,3.137c0,0-0.319,0.638,0.425,0.638c0.744,0,19.139,0,19.139,0
		s0.585-0.055,0.319-0.638c-0.266-0.585-1.914-3.137-1.914-3.137l-0.105-7.284c0,0-0.215-0.825-0.826-0.825
		c-0.609,0-14.221,0-14.221,0s-0.797,0.027-0.797,0.825S26.713,53.983,26.713,53.983z"/>
	<path fill="#C7C8C9" d="M28.68,54.834h2.127v-6.168c0,0-1.01-2.233-2.127,0V54.834z"/>
	<path fill="#C7C8C9" d="M33.466,54.834h2.127v-6.168c0,0-1.01-2.233-2.127,0V54.834z"/>
	<path fill="#C7C8C9" d="M38.251,54.834h2.126v-6.168c0,0-1.011-2.233-2.126,0V54.834z"/>
	<polygon fill="#F28122" points="26.819,44.785 42.237,44.785 34.53,39.841 	"/>
</g>
</svg>
